<?xml version="1.0" encoding="utf-8"?>
<!-- Generator: Adobe Illustrator 24.0.1, SVG Export Plug-In . SVG Version: 6.00 Build 0)  -->
<svg version="1.1" id="Layer_1" xmlns="http://www.w3.org/2000/svg" xmlns:xlink="http://www.w3.org/1999/xlink" x="0px" y="0px"
	 viewBox="0 0 189.2 179.3" style="enable-background:new 0 0 189.2 179.3;" xml:space="preserve">
<g>
	<path d="M185.9,133.4l-42.8-49.7c-0.1-0.1-0.2-0.2-0.3-0.3c-0.5-0.5-1.1-1-1.8-1.6l-0.7-0.5l0.5-0.8c8.7-14.4,12-30.4,9.2-44.9
		C146,15.2,131.3,2,112.6,2c-9,0-18.4,3.2-27.9,9.4l-0.5,0.4l-0.5-0.4c-9.3-6-18.9-9.2-27.7-9.2c-18.6,0-33.3,13.1-37.4,33.3
		c-1.5,7.8-1.3,15.9,0.6,24.3l0.3,1.2l-1.2,0c-3.7,0.1-7.2,1.3-10.1,3.7c-0.1,0.1-0.3,0.2-0.4,0.4c-6.7,5.6-7.7,15.4-2.3,22.2
		l37.8,47c3.1,3.8,7.5,6.2,12.3,6.8l67.7,8.6l19.3,25.6c0.9,1.2,2.3,2,3.9,2.1c0.1,0,0.3,0,0.4,0c1.4,0,2.8-0.6,3.8-1.6l35.2-35.2
		C187.6,138.6,187.7,135.5,185.9,133.4z M29,37.6L29,37.6C32,22.3,42.4,12.8,56,12.8c7.7,0,16.4,3.4,25.1,9.7c1.9,1.4,4.4,1.4,6.3,0
		c8.8-6.5,17.5-9.9,25.3-9.9c13.6,0,23.9,9.6,27,25c2.4,12.5-0.8,26.4-8.9,39l-0.4,0.6L83.8,65.5C75.6,63.4,67.2,68,64.6,76
		c-2.6,8,1.5,16.7,9.2,19.8l21.4,8.7l-4.4,4.9l-30.6-7.3l-0.2-0.3C56,97.2,44.3,83.1,35.3,72.2L35.2,72C29,60.8,26.8,48.5,29,37.6z
		 M147.3,163.9l-17-22.5c-0.9-1.1-2.2-1.9-3.6-2.1l-69.9-8.8c-2.1-0.3-4.1-1.4-5.5-3L13.8,80.6c-1.8-2.3-1.4-5.7,0.9-7.5
		c0.1-0.1,0.2-0.2,0.3-0.3l0.1-0.1c2.4-1.7,5.7-1.3,7.6,0.9l3.6,4.4c10.9,13.2,26.6,32.1,26.7,32.3c0.7,0.9,1.7,1.5,2.9,1.8
		l35.4,8.4c1.9,0.4,3.9-0.2,5.2-1.6l11.6-12.8c0.4-0.5,0.7-1,1-1.6c1.1-2.7-0.2-5.8-2.9-6.9L77.8,86c-2.6-1.1-3.9-4.1-3-6.7
		c0.9-2.6,3.7-4.1,6.4-3.4l49.6,12.4c1.7,0.4,3.3,1.2,4.5,2.4l0.1,0.1l39.4,45.8L147.3,163.9z"/>
</g>
</svg>
