<?xml version="1.0" encoding="utf-8"?>
<!-- Generator: Adobe Illustrator 24.0.1, SVG Export Plug-In . SVG Version: 6.00 Build 0)  -->
<svg version="1.1" id="Layer_1" xmlns="http://www.w3.org/2000/svg" xmlns:xlink="http://www.w3.org/1999/xlink" x="0px" y="0px"
	 viewBox="0 0 213.5 213.5" style="enable-background:new 0 0 213.5 213.5;" xml:space="preserve">
<style type="text/css">
	.st0{stroke:#000000;stroke-width:2;}
</style>
<g transform="translate(57.557 1.279) rotate(20)">
	<g transform="translate(21.861 145.273)">
		<path class="st0" d="M5.5,0.9c-1.3-1.3-3.3-1.3-4.5,0c-1.3,1.3-1.3,3.3,0,4.5c1.3,1.3,3.3,1.3,4.5,0c0.6-0.6,0.9-1.4,0.9-2.3
			C6.4,2.4,6.1,1.5,5.5,0.9z"/>
	</g>
	<g transform="translate(145.423 57.854)">
		<path class="st0" d="M5.5,0.9C4.2-0.3,2.2-0.3,1,1c-1.2,1.3-1.2,3.3,0,4.5s3.3,1.2,4.5,0c0.6-0.6,0.9-1.4,0.9-2.3
			C6.4,2.4,6.1,1.5,5.5,0.9z"/>
	</g>
	<g transform="translate(0.007)">
		<path class="st0" d="M163.6,0.9C163,0.3,162.2,0,161.3,0L82.3,0c-1.8,0-3.2,1.4-3.2,3.2v9.2l-30.5,8.2c-1.7,0.5-2.7,2.2-2.3,3.9
			l15.8,58.9L48.5,97.1c-1.8-2.6-4.8-4.2-8-4.2l-30.9,0c-5.3,0-9.6,4.3-9.6,9.6l0,52.4c0,5.3,4.3,9.6,9.6,9.6h30.9
			c4.4,0,8.3-3,9.4-7.3l3.8,3.3c2.9,2.6,6.7,4,10.6,4l97,0c1.8,0,3.2-1.4,3.2-3.2c0,0,0,0,0,0l0-158.1
			C164.6,2.4,164.2,1.5,163.6,0.9z M43.7,154.9c0,1.8-1.4,3.2-3.2,3.2l-30.9,0c-1.8,0-3.2-1.4-3.2-3.2l0-52.4c0-1.8,1.4-3.2,3.2-3.2
			l12.2,0l0,37c0,1.8,1.4,3.2,3.2,3.2c1.8,0,3.2-1.4,3.2-3.2l0-37h12.2c1.8,0,3.2,1.4,3.2,3.2L43.7,154.9L43.7,154.9z M53.4,25.9
			l25.7-6.9l0,11.9l-2.2,0.6c-1.7,0.5-2.7,2.2-2.3,3.9c1.2,4.6-1.5,9.4-6.1,10.6c-1.7,0.5-2.7,2.2-2.3,3.9c0,0,0,0,0,0l12.5,46.4
			h-6.4l-3.3-13c-0.1-0.4-0.3-0.8-0.5-1.1L53.4,25.9z M79.1,45.7l0,27.1l-5.9-21.7C75.6,49.9,77.6,48,79.1,45.7L79.1,45.7z
			 M125.2,158.1l-60.9,0c-2.4,0-4.6-0.9-6.4-2.4l-7.8-6.8l0-44.5l14-14l2.5,10c0.4,1.4,1.6,2.4,3.1,2.4l63.2,0c2.5,0,4.5,2,4.5,4.5
			s-2,4.5-4.5,4.5l-32.4,0c-1.8,0-3.2,1.4-3.2,3.2c0,1.8,1.4,3.2,3.2,3.2l0,0l42.4,0c2.5,0,4.5,2,4.5,4.5s-2,4.5-4.5,4.5l-42.4,0
			c-1.8,0-3.2,1.4-3.2,3.2c0,1.8,1.4,3.2,3.2,3.2l0,0l35.6,0c2.5,0,4.5,2,4.5,4.5s-2,4.5-4.5,4.5l-35.6,0c-1.8,0-3.2,1.4-3.2,3.2
			c0,1.8,1.4,3.2,3.2,3.2h24.6c2.5,0,4.5,2,4.5,4.5S127.7,158.1,125.2,158.1L125.2,158.1z M158.1,158.1l-22.9,0c1.3-2.9,1.3-6.1,0-9
			h1c6,0,10.9-4.9,10.9-10.9c0-1.7-0.4-3.4-1.2-4.9c5.8-1.6,9.2-7.6,7.6-13.4c-0.4-1.3-1-2.5-1.8-3.6l0-40.7c0-1.8-1.4-3.2-3.2-3.2
			c-1.8,0-3.2,1.4-3.2,3.2l0,36.6c-0.8-0.2-1.6-0.3-2.3-0.3H143c2.5-5.5,0.1-12-5.4-14.5c-1.4-0.6-3-1-4.5-1h-5.2
			c7.8-3.3,11.4-12.4,8.1-20.2c-3.3-7.8-12.4-11.4-20.2-8.1c-7.8,3.3-11.4,12.4-8.1,20.2c1.6,3.6,4.5,6.5,8.1,8.1H98.2l0-61.1
			c5.8-1.3,10.3-5.8,11.5-11.5l24.2,0c1.3,5.8,5.8,10.3,11.5,11.5v10c0,1.8,1.4,3.2,3.2,3.2c1.8,0,3.2-1.4,3.2-3.2l0-12.9
			c0-1.8-1.4-3.2-3.2-3.2l0,0c-4.8,0-8.6-3.9-8.7-8.7c0-1.8-1.4-3.2-3.2-3.2l0,0l-29.9,0c-1.8,0-3.2,1.4-3.2,3.2
			c0,4.8-3.9,8.6-8.7,8.7c-1.8,0-3.2,1.4-3.2,3.2l0,64h-6.3l0-90l72.6,0L158.1,158.1z M121.8,91.2c-4.9,0-9-4-9-9s4-9,9-9
			c4.9,0,9,4,9,9C130.8,87.2,126.8,91.2,121.8,91.2L121.8,91.2z"/>
	</g>
</g>
</svg>
