<?xml version="1.0" encoding="utf-8"?>
<!-- Generator: Adobe Illustrator 24.0.1, SVG Export Plug-In . SVG Version: 6.00 Build 0)  -->
<svg version="1.1" id="Layer_1" xmlns="http://www.w3.org/2000/svg" xmlns:xlink="http://www.w3.org/1999/xlink" x="0px" y="0px"
	 viewBox="0 0 227.3 243.4" style="enable-background:new 0 0 227.3 243.4;" xml:space="preserve">
<g transform="translate(-7.392 20.208) rotate(-9)">
	<path d="M79.3,126.4l0,16.2c0,3.3,2.7,5.9,5.9,5.9l38,0c3.3,0,5.9-2.7,5.9-5.9l0-16.2c0-7.6-4.8-14.3-12-16.6
		c5.8-7.1,4.7-17.6-2.5-23.3c-7.1-5.8-17.6-4.7-23.3,2.5c-4.9,6.1-4.9,14.8,0,20.9C84.2,112.1,79.3,118.8,79.3,126.4z M104.2,89.8
		c5.3,0,9.5,4.3,9.5,9.5c0,5.3-4.3,9.5-9.5,9.5c-5.3,0-9.5-4.3-9.5-9.5c0,0,0,0,0,0C94.7,94.1,99,89.8,104.2,89.8z M86.4,126.4
		c0-5.8,4.7-10.5,10.5-10.5h14.8c5.8,0,10.5,4.7,10.5,10.5l0,15.1h-3.7l0-15.6c0-2-1.5-3.6-3.5-3.6s-3.6,1.5-3.6,3.5
		c0,0,0,0.1,0,0.1l0,15.6H97.2l0-15.6c0-2-1.6-3.5-3.5-3.5s-3.5,1.6-3.5,3.5l0,0v15.6h-3.7L86.4,126.4z"/>
	<path d="M79.3,40.9v11c0,3.3,2.7,5.9,5.9,5.9l38,0c3.3,0,5.9-2.7,5.9-5.9v-11c0-7.6-4.9-14.3-12-16.6c5.8-7.1,4.7-17.5-2.5-23.3
		c-0.1-0.1-0.2-0.1-0.3-0.2c-1.5-1.2-3.7-1-5,0.6c-1.2,1.5-1,3.7,0.6,5c0,0,0,0,0.1,0.1c4.2,3.2,4.9,9.2,1.7,13.4
		c-3.2,4.2-9.2,4.9-13.4,1.7c-4.2-3.2-4.9-9.2-1.7-13.4c0.4-0.5,0.8-1,1.3-1.4c1.5-1.3,1.7-3.5,0.4-5c-1.3-1.5-3.5-1.7-5-0.4
		c0,0,0,0,0,0c-6.8,5.8-7.8,16.1-2.1,23C84.2,26.7,79.3,33.3,79.3,40.9z M86.4,40.9c0-5.8,4.7-10.5,10.5-10.5l14.8,0
		c5.8,0,10.4,4.7,10.5,10.5l0,9.8h-3.7V40.4c0-2-1.6-3.5-3.6-3.5c-1.9,0-3.4,1.6-3.5,3.5l0,10.3l-14.2,0V40.4c0-2-1.6-3.5-3.5-3.5
		c-2,0-3.5,1.6-3.5,3.5l0,10.3l-3.7,0L86.4,40.9z"/>
	<path d="M158.2,87.8v11c0,3.3,2.7,5.9,5.9,5.9l38,0c3.3,0,5.9-2.7,5.9-5.9v-11c0-7.6-4.8-14.3-12-16.6c5.8-7.1,4.7-17.6-2.5-23.3
		c-7.1-5.8-17.6-4.7-23.3,2.5c-4.9,6.1-4.9,14.8,0,20.9C163,73.5,158.2,80.2,158.2,87.8z M183.1,51.2c5.3,0,9.5,4.3,9.5,9.5
		s-4.3,9.5-9.5,9.5c-5.3,0-9.5-4.3-9.5-9.5C173.6,55.4,177.8,51.2,183.1,51.2z M165.2,87.8c0-5.8,4.7-10.5,10.5-10.5l14.8,0
		c5.8,0,10.5,4.7,10.5,10.5v9.8h-3.7V87.3c0-2-1.6-3.5-3.6-3.5c-1.9,0-3.4,1.6-3.5,3.5v10.3H176V87.3c0-2-1.6-3.5-3.5-3.5
		s-3.5,1.6-3.5,3.5l0,0v10.3h-3.7V87.8z"/>
	<path d="M0.5,87.8l0,11c0,3.3,2.7,5.9,5.9,5.9l38,0c3.3,0,5.9-2.7,5.9-5.9l0-11c0-7.6-4.9-14.3-12-16.6c5.8-7.1,4.7-17.6-2.5-23.3
		c-7.1-5.8-17.6-4.7-23.3,2.5c-4.9,6.1-4.9,14.8,0,20.9C5.3,73.5,0.5,80.2,0.5,87.8z M25.4,51.2c5.3,0,9.5,4.3,9.5,9.5
		c0,5.3-4.3,9.5-9.5,9.5c-5.3,0-9.5-4.3-9.5-9.5l0,0C15.9,55.4,20.2,51.2,25.4,51.2z M7.6,87.8c0-5.8,4.7-10.5,10.5-10.5h14.8
		c5.8,0,10.5,4.7,10.5,10.5l0,9.8h-3.7l0-10.3c0-2-1.6-3.5-3.6-3.5c-1.9,0-3.4,1.6-3.5,3.5l0,10.3l-14.2,0l0-10.3
		c0-2-1.6-3.5-3.5-3.5c-2,0-3.5,1.6-3.5,3.5l0,10.3H7.6L7.6,87.8z"/>
	<path d="M158.2,181c0,3.3,2.7,5.9,5.9,5.9l38,0c3.3,0,5.9-2.7,5.9-5.9l0-11c0-7.6-4.8-14.3-12-16.6c5.8-7.1,4.7-17.6-2.5-23.3
		c-7.1-5.8-17.6-4.7-23.3,2.5c-4.9,6.1-4.9,14.8,0,20.9c-7.2,2.4-12,9.1-12,16.6L158.2,181z M183.1,133.4c5.3,0,9.5,4.3,9.5,9.5
		s-4.3,9.5-9.5,9.5c-5.3,0-9.5-4.3-9.5-9.5C173.6,137.7,177.8,133.4,183.1,133.4L183.1,133.4z M165.2,170c0-5.8,4.7-10.5,10.5-10.5
		h14.8c5.8,0,10.5,4.7,10.5,10.5v9.8h-3.7v-10.3c0-2-1.6-3.5-3.6-3.5c-1.9,0-3.4,1.6-3.5,3.5v10.3H176l0-10.3c0-2-1.6-3.5-3.5-3.5
		s-3.5,1.6-3.5,3.5l0,0v10.3h-3.7V170z"/>
	<path d="M0.5,181c0,3.3,2.7,5.9,5.9,5.9l38,0c3.3,0,5.9-2.7,5.9-5.9l0-11c0-7.6-4.9-14.3-12-16.6c5.8-7.1,4.7-17.6-2.5-23.3
		s-17.6-4.7-23.3,2.5c-4.9,6.1-4.9,14.8,0,20.9c-7.2,2.4-12,9.1-12,16.6L0.5,181z M25.4,133.4c5.3,0,9.5,4.3,9.5,9.5
		c0,5.3-4.3,9.5-9.5,9.5s-9.5-4.3-9.5-9.5l0,0C15.9,137.7,20.2,133.4,25.4,133.4L25.4,133.4z M7.6,170c0-5.8,4.7-10.5,10.5-10.5
		h14.8c5.8,0,10.5,4.7,10.5,10.5l0,9.8h-3.7l0-10.3c0-2-1.6-3.5-3.6-3.5c-1.9,0-3.4,1.6-3.5,3.5l0,10.3l-14.2,0l0-10.3
		c0-2-1.6-3.5-3.5-3.5c-2,0-3.5,1.6-3.5,3.5l0,10.3H7.6L7.6,170z"/>
	<path d="M53.8,147.1c1,1.7,3.1,2.3,4.8,1.3c0,0,0,0,0,0l6.4-3.7c8.1,12,21.3,19.6,35.7,20.6v7.4c0,2,1.6,3.5,3.6,3.5
		c1.9,0,3.4-1.6,3.5-3.5l0-7.4c14.4-1.1,27.6-8.7,35.7-20.6l6.4,3.7c1.7,1,3.9,0.4,4.8-1.3c1-1.7,0.4-3.9-1.3-4.8l-6.4-3.7
		c1.8-3.7,3.1-7.7,3.9-11.7c0.4-1.9-0.9-3.8-2.8-4.1s-3.8,0.9-4.1,2.8c0,0,0,0,0,0c-4.2,21.9-25.4,36.3-47.3,32.1
		c-21.9-4.2-36.3-25.4-32.1-47.3c4.2-21.9,25.4-36.3,47.3-32.1c11.5,2.2,21.5,9.3,27.4,19.4c0,0,0,0.1,0,0.1s0,0,0,0.1
		c2.3,3.9,3.8,8.2,4.7,12.6c0.4,1.9,2.2,3.2,4.1,2.8c1.9-0.4,3.2-2.2,2.8-4.1c0,0,0,0,0,0c-0.8-4.1-2.1-8-3.9-11.7l6.4-3.7
		c1.7-1,2.3-3.1,1.3-4.8c-1-1.7-3.1-2.3-4.8-1.3l-6.4,3.7c-8.2-12-21.3-19.5-35.7-20.6v-7.4c0-2-1.6-3.5-3.6-3.5
		c-1.9,0-3.4,1.6-3.5,3.5l0,7.4C86.3,71.6,73.1,79.2,65,91.2l-6.4-3.7c-1.7-1-3.9-0.4-4.8,1.3c-1,1.7-0.4,3.9,1.3,4.8l0,0l6.4,3.7
		c-6.3,13-6.3,28.2,0,41.3l-6.4,3.7C53.4,143.2,52.8,145.4,53.8,147.1C53.8,147.1,53.8,147.1,53.8,147.1z"/>
	<path d="M79.3,221.7l0,11c0,3.3,2.7,5.9,5.9,5.9l38,0c3.3,0,5.9-2.7,5.9-5.9v-11c0-7.6-4.9-14.3-12-16.6c5.8-7.1,4.7-17.6-2.5-23.3
		c-7.1-5.8-17.6-4.7-23.3,2.5c-4.9,6.1-4.9,14.8,0,20.9C84.2,207.4,79.3,214.2,79.3,221.7z M104.2,185.1c5.3,0,9.5,4.3,9.5,9.5
		c0,5.3-4.3,9.5-9.5,9.5c-5.3,0-9.5-4.3-9.5-9.5c0,0,0,0,0,0C94.7,189.4,99,185.1,104.2,185.1z M86.4,221.7
		c0-5.8,4.7-10.5,10.5-10.5h14.8c5.8,0,10.5,4.7,10.5,10.5l0,9.8h-3.7l0-10.3c0-2-1.5-3.6-3.5-3.6c-2,0-3.6,1.5-3.6,3.5
		c0,0,0,0.1,0,0.1v10.3H97.2l0-10.3c0-2-1.6-3.5-3.5-3.5s-3.5,1.6-3.5,3.5l0,0v10.3h-3.7L86.4,221.7z"/>
</g>
</svg>
