<svg xmlns="http://www.w3.org/2000/svg" width="28" height="28" viewBox="0 0 28 28"><defs><style>.a{fill:#81bc01}.b{fill:#fff}</style></defs><circle class="a" cx="14" cy="14" r="14"/><path class="b" d="M18.297 6.436h-2.181a3.831 3.831 0 0 0-4.035 4.139v1.909H9.887a.342.342 0 0 0-.342.343v2.768a.342.342 0 0 0 .342.342h2.194v6.98a.342.342 0 0 0 .342.342h2.864a.342.342 0 0 0 .343-.342v-6.98h2.564a.343.343 0 0 0 .344-.342v-2.769a.345.345 0 0 0-.344-.344h-2.565v-1.619c0-.778.188-1.173 1.2-1.173h1.47a.344.344 0 0 0 .342-.343V6.778a.343.343 0 0 0-.342-.342z"/></svg>