<svg xmlns="http://www.w3.org/2000/svg" width="28" height="28" viewBox="0 0 28 28"><defs><style>.a{fill:#81bc01}.b{fill:#fff}</style></defs><g transform="translate(0 .001)"><circle class="a" cx="14" cy="14" r="14" transform="translate(0 -.001)"/><path class="b" d="M22.365 15.125v5.772h-3.347v-5.385c0-1.352-.483-2.276-1.695-2.276a1.83 1.83 0 0 0-1.716 1.224 2.29 2.29 0 0 0-.111.816v5.621H12.15s.045-9.121 0-10.065h3.347v1.426c-.007.011-.016.022-.022.033h.022v-.033a3.323 3.323 0 0 1 3.016-1.663c2.2 0 3.852 1.438 3.852 4.529zM8.649 5.981a1.744 1.744 0 1 0-.044 3.478h.022a1.745 1.745 0 1 0 .022-3.478zM6.954 20.897h3.345V10.833H6.954z"/></g></svg>