<svg xmlns="http://www.w3.org/2000/svg" width="28" height="28" viewBox="0 0 28 28"><defs><style>.a{fill:#81bc01}.b{fill:#fff}</style></defs><g transform="translate(.124)"><circle class="a" cx="14" cy="14" r="14" transform="translate(-.124)"/><path class="b" d="M6.243 19.727a6.633 6.633 0 0 0 4.724-1.359 3.275 3.275 0 0 1-1.872-.646 3.209 3.209 0 0 1-1.142-1.6 3.429 3.429 0 0 0 1.413-.064 3.241 3.241 0 0 1-2.539-3.2 3.394 3.394 0 0 0 1.436.381 3.224 3.224 0 0 1-1.4-2.32 3.07 3.07 0 0 1 .418-1.976 9.262 9.262 0 0 0 6.654 3.371c-.02-.191-.049-.366-.057-.542a3.154 3.154 0 0 1 1.592-2.991 3.207 3.207 0 0 1 3.823.418.372.372 0 0 0 .4.106 6.856 6.856 0 0 0 1.782-.712 3.377 3.377 0 0 1-1.287 1.755c.189-.035.38-.062.567-.105s.4-.1.593-.162.373-.135.559-.2l.031.033c-.257.3-.5.615-.777.9a8.563 8.563 0 0 1-.717.628.248.248 0 0 0-.1.221 9.351 9.351 0 0 1-1.994 6.033 8.578 8.578 0 0 1-5.435 3.3 9.324 9.324 0 0 1-4.972-.416 8 8 0 0 1-1.7-.853z"/></g></svg>