<svg xmlns="http://www.w3.org/2000/svg" width="140.975" height="124.895" viewBox="0 0 140.975 124.895"><defs><style>.a{opacity:.15}.b{stroke:#54565b;stroke-width:3px}</style></defs><g class="a"><path class="b" d="M105.92 74.337l-7.441-27.751a31.666 31.666 0 0 0-28.631-23.369l-1.067-3.978a10.006 10.006 0 1 0-19.328 5.183l1.064 3.97a31.666 31.666 0 0 0-13.104 34.566l7.44 27.752a9.946 9.946 0 0 0-5.543 11.64l.089.33a9.943 9.943 0 0 0 12.164 7.021l15.116-4.052a14.866 14.866 0 0 0 27.815-7.458l15.116-4.053a9.942 9.942 0 0 0 7.02-12.164l-.09-.331a9.946 9.946 0 0 0-10.62-7.306zm-24.443 30.9a7.132 7.132 0 0 1-6.628-1.6l11.566-3.102a7.133 7.133 0 0 1-4.938 4.702zm-23.91-80.412l-.645-2.406a2.271 2.271 0 0 1 4.387-1.176l.645 2.405zm-12.682 36.13a23.875 23.875 0 0 1 46.122-12.366l7.407 27.628-46.121 12.366zm64.276 23.026a2.2 2.2 0 0 1-1.556 2.695l-58.047 15.563a2.2 2.2 0 0 1-2.695-1.555l-.089-.332a2.2 2.2 0 0 1 1.556-2.695l58.047-15.563a2.2 2.2 0 0 1 2.695 1.555l.089.332zm0 0M121.945 31.823a3.867 3.867 0 1 0-3.25 7.019 15.402 15.402 0 0 1 8.023 10.131 16.23 16.23 0 0 1-1.78 13.317 3.868 3.868 0 0 0 6.39 4.359 23.714 23.714 0 0 0 2.846-19.736 23.103 23.103 0 0 0-12.23-15.09zm0 0"/><path class="b" d="M112.574 41.349a3.869 3.869 0 1 0-3.165 7.06 6.628 6.628 0 0 1 3.544 4.39 7.064 7.064 0 0 1-.84 5.87 3.867 3.867 0 1 0 6.341 4.428 14.664 14.664 0 0 0 1.955-12.358 14.327 14.327 0 0 0-7.835-9.39zm0 0M28.86 70a3.869 3.869 0 0 0-6.272-4.53A14.325 14.325 0 0 0 20.5 77.513a14.662 14.662 0 0 0 7.876 9.724 3.868 3.868 0 0 0 3.274-7.008 7.053 7.053 0 0 1-3.663-4.661A6.628 6.628 0 0 1 28.86 70zm0 0"/><path class="b" d="M16.037 66.366a3.869 3.869 0 1 0-6.33-4.45A23.103 23.103 0 0 0 6.673 81.1 23.71 23.71 0 0 0 19.01 96.766a3.868 3.868 0 0 0 3.353-6.971 16.234 16.234 0 0 1-8.205-10.64 15.408 15.408 0 0 1 1.879-12.789zm0 0"/></g></svg>