<svg xmlns="http://www.w3.org/2000/svg" xmlns:xlink="http://www.w3.org/1999/xlink" viewBox="0 0 135 40"><defs><style>.cls-1{fill:#a6a5a5;}.cls-2,.cls-3{fill:#fff;}.cls-2{stroke:#fff;stroke-miterlimit:10;stroke-width:0.2px;}.cls-4{fill:#5bc8f3;}.cls-5{fill:url(#linear-gradient);}.Graphic-Style-3{fill:url(#linear-gradient-2);}.cls-6{fill:url(#linear-gradient-3);}</style><linearGradient id="linear-gradient" x1="31.09" y1="20" x2="6.91" y2="20" gradientUnits="userSpaceOnUse"><stop offset="0" stop-color="#ffdf00"/><stop offset="0.41" stop-color="#fbbc0e"/><stop offset="0.78" stop-color="#f9a418"/><stop offset="1" stop-color="#f89b1c"/></linearGradient><linearGradient id="linear-gradient-2" x1="24.81" y1="22.29" x2="2.07" y2="45.03" gradientUnits="userSpaceOnUse"><stop offset="0" stop-color="#ee4447"/><stop offset="1" stop-color="#c5166c"/></linearGradient><linearGradient id="linear-gradient-3" x1="1.97" y1="-5.13" x2="20.54" y2="13.43" gradientUnits="userSpaceOnUse"><stop offset="0" stop-color="#269e6f"/><stop offset="0.05" stop-color="#2ba06f"/><stop offset="0.47" stop-color="#53b26b"/><stop offset="0.8" stop-color="#6bbd69"/><stop offset="1" stop-color="#74c168"/></linearGradient></defs><title>App-Google-Play</title><g id="Layer_2" data-name="Layer 2"><g id="Layer_4" data-name="Layer 4"><rect width="135" height="40" rx="5" ry="5"/><path class="cls-1" d="M130,.8A4.2,4.2,0,0,1,134.2,5V35a4.2,4.2,0,0,1-4.2,4.2H5A4.2,4.2,0,0,1,.8,35V5A4.2,4.2,0,0,1,5,.8H130m0-.8H5A5,5,0,0,0,0,5V35a5,5,0,0,0,5,5H130a5,5,0,0,0,5-5V5a5,5,0,0,0-5-5Z"/><path class="cls-2" d="M47.42,10.24a2.71,2.71,0,0,1-.75,2,2.91,2.91,0,0,1-2.2.89A3.09,3.09,0,0,1,41.35,10a3.09,3.09,0,0,1,3.12-3.13,3.09,3.09,0,0,1,1.23.25,2.48,2.48,0,0,1,.94.67l-.53.53a2,2,0,0,0-1.64-.71A2.32,2.32,0,0,0,42.14,10a2.36,2.36,0,0,0,4,1.73,1.89,1.89,0,0,0,.5-1.22H44.47V9.79h2.91A2.55,2.55,0,0,1,47.42,10.24Z"/><path class="cls-2" d="M52,7.74H49.29v1.9h2.46v.72H49.29v1.9H52V13h-3.5V7H52Z"/><path class="cls-2" d="M55.28,13h-.77V7.74H52.83V7H57v.74H55.28Z"/><path class="cls-2" d="M59.94,13V7h.77v6Z"/><path class="cls-2" d="M64.13,13h-.77V7.74H61.68V7H65.8v.74H64.13Z"/><path class="cls-2" d="M73.61,12.22a3.12,3.12,0,0,1-4.4,0A3.07,3.07,0,0,1,68.33,10a3.07,3.07,0,0,1,.88-2.22,3.1,3.1,0,0,1,4.4,0A3.07,3.07,0,0,1,74.49,10,3.07,3.07,0,0,1,73.61,12.22Zm-3.83-.5a2.31,2.31,0,0,0,3.26,0A2.35,2.35,0,0,0,73.71,10,2.35,2.35,0,0,0,73,8.28a2.31,2.31,0,0,0-3.26,0A2.35,2.35,0,0,0,69.11,10,2.35,2.35,0,0,0,69.78,11.72Z"/><path class="cls-2" d="M75.57,13V7h.94l2.92,4.67h0l0-1.16V7h.77v6h-.8L76.35,8.11h0l0,1.16V13Z"/><path class="cls-3" d="M68.14,21.75A4.25,4.25,0,1,0,72.4,26,4.19,4.19,0,0,0,68.14,21.75Zm0,6.83A2.58,2.58,0,1,1,70.54,26,2.46,2.46,0,0,1,68.14,28.58Zm-9.31-6.83A4.25,4.25,0,1,0,63.09,26,4.19,4.19,0,0,0,58.82,21.75Zm0,6.83A2.58,2.58,0,1,1,61.22,26,2.46,2.46,0,0,1,58.82,28.58ZM47.74,23.06v1.8h4.32a3.77,3.77,0,0,1-1,2.27,4.42,4.42,0,0,1-3.33,1.32,4.8,4.8,0,0,1,0-9.6A4.6,4.6,0,0,1,51,20.14l1.27-1.27A6.29,6.29,0,0,0,47.74,17a6.61,6.61,0,1,0,0,13.21,6,6,0,0,0,4.61-1.85,6,6,0,0,0,1.56-4.22,5.88,5.88,0,0,0-.1-1.13Zm45.31,1.4a4,4,0,0,0-3.64-2.71,4,4,0,0,0-4,4.25,4.16,4.16,0,0,0,4.22,4.25,4.23,4.23,0,0,0,3.54-1.88l-1.45-1a2.43,2.43,0,0,1-2.09,1.18,2.16,2.16,0,0,1-2.06-1.29l5.69-2.35Zm-5.8,1.42a2.33,2.33,0,0,1,2.22-2.48,1.65,1.65,0,0,1,1.58.9ZM82.63,30H84.5V17.5H82.63Zm-3.06-7.3H79.5a3,3,0,0,0-2.24-1,4.26,4.26,0,0,0,0,8.51,2.9,2.9,0,0,0,2.24-1h.06v.61c0,1.63-.87,2.5-2.27,2.5a2.35,2.35,0,0,1-2.14-1.51l-1.63.68a4.05,4.05,0,0,0,3.77,2.51c2.19,0,4-1.29,4-4.43V22H79.57Zm-2.14,5.88a2.59,2.59,0,0,1,0-5.16A2.4,2.4,0,0,1,79.7,26,2.38,2.38,0,0,1,77.42,28.58ZM101.81,17.5H97.33V30H99.2V25.26h2.61a3.89,3.89,0,1,0,0-7.76Zm0,6H99.2V19.24h2.65a2.14,2.14,0,1,1,0,4.29Zm11.53-1.8a3.5,3.5,0,0,0-3.33,1.91l1.66.69a1.77,1.77,0,0,1,1.7-.92,1.8,1.8,0,0,1,2,1.61v.13a4.13,4.13,0,0,0-1.95-.48c-1.79,0-3.6,1-3.6,2.81a2.89,2.89,0,0,0,3.1,2.75A2.63,2.63,0,0,0,115.31,29h.06v1h1.8V25.19C117.18,23,115.52,21.73,113.38,21.73Zm-.23,6.85c-.61,0-1.46-.31-1.46-1.06,0-1,1.06-1.33,2-1.33a3.32,3.32,0,0,1,1.7.42A2.26,2.26,0,0,1,113.16,28.58ZM123.74,22l-2.14,5.42h-.06L119.32,22h-2l3.33,7.58-1.9,4.21h1.95L125.82,22Zm-16.81,8h1.87V17.5h-1.87Z"/><path class="cls-4" d="M10.43,7.55A2,2,0,0,0,10,9V31a2,2,0,0,0,.46,1.4l.07.07L22.89,20.15v-.29L10.51,7.48Z"/><path class="cls-5" d="M27,24.27l-4.13-4.13v-.29L27,15.73l.09.05L32,18.56c1.4.79,1.4,2.09,0,2.88l-4.89,2.78Z"/><path class="Graphic-Style-3" d="M27.11,24.22,22.89,20,10.43,32.45a1.63,1.63,0,0,0,2.08.06l14.6-8.29"/><path class="cls-6" d="M27.11,15.78,12.51,7.49a1.63,1.63,0,0,0-2.08.06L22.89,20Z"/></g></g></svg>