<?xml version="1.0" encoding="utf-8"?>
<!-- Generator: Adobe Illustrator 24.0.1, SVG Export Plug-In . SVG Version: 6.00 Build 0)  -->
<svg version="1.1" id="Layer_1" xmlns="http://www.w3.org/2000/svg" xmlns:xlink="http://www.w3.org/1999/xlink" x="0px" y="0px"
	 viewBox="0 0 238.4 230.1" style="enable-background:new 0 0 238.4 230.1;" xml:space="preserve">
<g>
	<g transform="translate(0 0)">
		<path d="M5.5,64.1l0.2-0.1l28.1-18.7H33V16.5c0-2.3,1.8-4.1,4.1-4.1c0,0,0,0,0,0h20.5c2.3,0,4.1,1.8,4.1,4.1c0,0,0,0,0,0v10.1
			l38.8-25.9c1.4-0.9,3.2-0.9,4.6,0l94.8,63.2c5.8,3.9,7.3,11.8,3.4,17.6c-3.8,5.6-11.4,7.2-17.2,3.6c-0.1,0-0.1-0.1-0.2-0.1
			l-13.2-8.8v80h8.2c0-2.3,1.8-4.1,4.1-4.1h32.9c2.3,0,4.1,1.8,4.1,4.1c0,0,0,0,0,0h16.4v8.2H222v41.1h16.4v8.2H222
			c0,2.3-1.8,4.1-4.1,4.1H185c-2.3,0-4.1-1.8-4.1-4.1v-1.6l-30.7,12.7c-16.7,6.8-35.4,7-52.3,0.6l-63.5-24.2c-3.8-1.4-6.8-4.3-8.4-8
			c-1.7-3.7-1.8-8-0.2-11.8c1.3-3.4,3.9-6.2,7.2-7.8V76.2L19.8,85C14,88.9,6.1,87.4,2.2,81.6S-0.2,68,5.5,64.1z M189.1,209.6h24.7
			v-49.3h-24.7L189.1,209.6z M53.5,20.6H41.2v19.7l12.3-8.2V20.6z M33.6,189.9c0.7,1.7,2.1,3,3.8,3.6l63.5,24.2
			c14.9,5.7,31.4,5.5,46.2-0.5l33.8-14v-38.8h-10.4c-13.6,0-27.1,3.2-39.3,9.3c-4,2-8.5,3.1-13,3.1H86.4c-3.4,0-6.1,2.8-6.1,6.2
			c0,2.9,2,5.3,4.8,6c0.5,0,1.1,0.2,1.6,0.2h49.1v8.2H86.4c-0.1,0-0.2,0-0.2,0c-3.3-0.1-6.5-0.7-9.5-2l-34.4-14.6
			c-1.6-0.7-3.5-0.7-5.1,0c-1.7,0.7-3,2.1-3.7,3.8C32.8,186.2,32.8,188.2,33.6,189.9z M86.4,168.5h31.9c3.2,0,6.4-0.8,9.3-2.2
			c11.5-5.7,24.1-9.1,36.9-9.9V70.7l-61.6-41.1L41.2,70.7V172c1.5,0.1,2.9,0.5,4.3,1l26.6,11.3c-0.1-0.5-0.1-1-0.2-1.5
			C72,174.9,78.5,168.5,86.4,168.5z M10.7,78.4L10.7,78.4c1.4,0.8,3.2,0.7,4.6-0.2l85.3-56.9c1.4-0.9,3.2-0.9,4.6,0l85.3,56.9
			c2,1.4,4.8,0.8,6.2-1.2c1.4-2,0.8-4.8-1.2-6.2l0,0L102.8,9.1L10.3,70.8c-1.2,0.8-2,2.2-2,3.7C8.3,76.1,9.2,77.6,10.7,78.4z"/>
	</g>
	<g transform="translate(197.348 193.143)">
		<rect x="0" y="0" width="8.2" height="8.2"/>
	</g>
	<g transform="translate(90.51 82.196)">
		<path d="M24.1,30c-0.9-3-3.1-5.6-6-7l-8-4c-1.7-0.9-2.4-3-1.6-4.7c0.6-1.2,1.8-1.9,3.1-1.9h1.2c1.9,0,3.5,1.6,3.5,3.5v0.6h8.2
			v-0.6c0-5.1-3.3-9.6-8.2-11.1V0H8.2v4.7c-6.2,1.9-9.6,8.5-7.7,14.6c0.9,3,3.1,5.6,6,7l8,4c1.7,0.9,2.4,3,1.6,4.7
			c-0.6,1.2-1.8,1.9-3.1,1.9h-1.2c-1.9,0-3.5-1.6-3.5-3.5v-0.6H0v0.6c0,5.1,3.3,9.6,8.2,11.1v4.7h8.2v-4.7
			C22.6,42.7,26,36.1,24.1,30C24.1,30,24.1,30,24.1,30z"/>
	</g>
	<g transform="translate(61.746 65.76)">
		<path d="M41.1,0c22.7,0,41.1,18.4,41.1,41.1S63.8,82.2,41.1,82.2S0,63.8,0,41.1c0,0,0,0,0,0C0,18.4,18.4,0,41.1,0z M41.1,74
			C59.2,74,74,59.2,74,41.1C74,22.9,59.2,8.2,41.1,8.2C22.9,8.2,8.2,22.9,8.2,41.1C8.2,59.2,22.9,74,41.1,74
			C41.1,74,41.1,74,41.1,74z"/>
	</g>
	<g transform="translate(78.182 102.742)">
		<rect x="0" y="0" width="8.2" height="8.2"/>
	</g>
	<g transform="translate(119.274 102.742)">
		<rect x="0" y="0" width="8.2" height="8.2"/>
	</g>
</g>
</svg>
