<?xml version="1.0" encoding="utf-8"?>
<!-- Generator: Adobe Illustrator 24.0.1, SVG Export Plug-In . SVG Version: 6.00 Build 0)  -->
<svg version="1.1" id="Layer_1" xmlns="http://www.w3.org/2000/svg" xmlns:xlink="http://www.w3.org/1999/xlink" x="0px" y="0px"
	 viewBox="0 0 225.2 231.4" style="enable-background:new 0 0 225.2 231.4;" xml:space="preserve">
<g>
	<path d="M225.2,138.7c0-2.5-2-4.5-4.5-4.5H194v-24.8c0-2.5-2-4.5-4.5-4.5h-15.1v-9.7h1.3c2.5,0,4.5-2,4.5-4.5c0-2.5-2-4.5-4.5-4.5
		h-11.1C162.3,61,142.3,41,117.1,38.7V28.5h24.6c2.5,0,4.5-2,4.5-4.5V4.5c0-2.5-2-4.5-4.5-4.5c0,0,0,0,0,0h-29.1
		c-2.5,0-4.5,2-4.5,4.5v34.2c-25.3,2.2-45.4,22.2-47.6,47.5H49.1c-2.5,0-4.5,2-4.5,4.5c0,2.5,2,4.5,4.5,4.5h1.7v9.7H35.7
		c-2.5,0-4.5,2-4.5,4.5v24.8H4.5c-2.5,0-4.5,2-4.5,4.5c0,2.4,1.9,4.4,4.4,4.5v83.6c0,2.5,2,4.5,4.5,4.5c0,0,0,0,0,0h207.4
		c2.5,0,4.5-2,4.5-4.5v-83.6C223.3,143.2,225.2,141.2,225.2,138.7z M137.2,19.4h-20.1V9h20.1L137.2,19.4z M59.9,95.3H92
		c2.5,0,4.5-2,4.5-4.5c0-2.5-2-4.5-4.5-4.5H69.5c2.5-23.7,23.8-40.9,47.5-38.4c20.3,2.1,36.3,18.1,38.4,38.4h-22.9
		c-2.5,0-4.5,2-4.5,4.5c0,2.5,2,4.5,4.5,4.5h32.8v9.7H59.9V95.3z M13.4,143.3h17.8v13h-3.5c-2.5,0-4.5,2-4.5,4.5s2,4.5,4.5,4.5
		c0,0,0,0,0,0h3.5v13h-3.5c-2.5,0-4.5,2-4.5,4.5c0,2.5,2,4.5,4.5,4.5h3.5v13h-3.5c-2.5,0-4.5,2-4.5,4.5s2,4.5,4.5,4.5c0,0,0,0,0,0
		h3.5v12.9H13.4V143.3z M40.2,114H185v108.3h-14.4v-54.2c0-2.5-2-4.5-4.5-4.5h-18.9c-2.5,0-4.5,2-4.5,4.5v54.2h-16.1V207
		c0-7.7-6.3-14-14-14s-14,6.3-14,14v15.3H82.9v-54.2c0-2.5-2-4.5-4.5-4.5H59.4c-2.5,0-4.5,2-4.5,4.5v54.2H40.2V114z M64,222.3v-49.7
		h9.9v49.7L64,222.3z M107.6,222.3V207c0-2.7,2.3-4.9,5-4.9c2.7,0,4.8,2.2,4.9,4.9v15.3L107.6,222.3z M151.6,222.3v-49.7h9.9v49.7
		L151.6,222.3z M211.8,222.3H194v-12.9h3.5c2.5,0,4.5-2,4.5-4.5s-2-4.5-4.5-4.5c0,0,0,0,0,0H194v-13h3.5c2.5,0,4.5-2,4.5-4.5
		c0-2.5-2-4.5-4.5-4.5H194v-13h3.5c2.5,0,4.5-2,4.5-4.5s-2-4.5-4.5-4.5c0,0,0,0,0,0H194v-13h17.8L211.8,222.3z"/>
	<path d="M59.4,154.7h18.9c2.5,0,4.5-2,4.5-4.5v-18.6c0-2.5-2-4.5-4.5-4.5c0,0,0,0,0,0H59.4c-2.5,0-4.5,2-4.5,4.5v18.6
		C54.9,152.7,56.9,154.7,59.4,154.7z M64,136.1h9.9v9.5H64L64,136.1z"/>
	<path d="M103,184.1H122c2.5,0,4.5-2,4.5-4.5l0,0v-38.5c0-7.7-6.3-14-14-14s-14,6.3-14,14v38.5C98.5,182,100.5,184.1,103,184.1
		C103,184.1,103,184.1,103,184.1z M107.6,175v-20.3h9.9V175L107.6,175z M112.5,136.1c2.7,0,4.9,2.2,4.9,4.9v4.6h-9.9v-4.6
		C107.6,138.4,109.8,136.1,112.5,136.1L112.5,136.1z"/>
	<path d="M147.1,154.7H166c2.5,0,4.5-2,4.5-4.5v-18.6c0-2.5-2-4.5-4.5-4.5h0h-18.9c-2.5,0-4.5,2-4.5,4.5v0v18.6
		C142.6,152.7,144.6,154.7,147.1,154.7z M151.6,136.1h9.9v9.5h-9.9V136.1z"/>
	<path d="M111.6,86.3c-2.4,0.5-4,2.9-3.6,5.3c0.5,2.4,2.9,4,5.3,3.6c2.4-0.5,4-2.9,3.6-5.3c-0.1-0.4-0.2-0.7-0.3-1
		C115.7,87,113.6,86,111.6,86.3z"/>
</g>
</svg>
