<?xml version="1.0" encoding="utf-8"?>
<!-- Generator: Adobe Illustrator 24.0.1, SVG Export Plug-In . SVG Version: 6.00 Build 0)  -->
<svg version="1.1" id="Layer_1" xmlns="http://www.w3.org/2000/svg" xmlns:xlink="http://www.w3.org/1999/xlink" x="0px" y="0px"
	 viewBox="0 0 265.2 261.4" style="enable-background:new 0 0 265.2 261.4;" xml:space="preserve">
<g>
	<path d="M201.1,133.2c-1.8,0.3-3.4-0.9-3.7-2.7c-0.2-1.1-0.8-2.2-1.7-2.8s-2.1-1-3.2-0.8c-1.1,0.2-2.2,0.8-2.8,1.7
		c-0.7,0.9-1,2.1-0.8,3.2c0.5,3.2,2.1,6,4.7,7.9c2.1,1.5,4.6,2.4,7.1,2.4c0.6,0,1.2,0,1.8-0.1c3.2-0.5,6-2.1,7.9-4.7
		c1.9-2.6,2.7-5.7,2.2-8.9l0-0.2c-0.4-2.4-2.6-4-5-3.6c-2.4,0.4-4,2.6-3.6,5c0.1,0.9-0.1,1.7-0.6,2.4
		C202.8,132.6,202,133,201.1,133.2z"/>
	<path d="M252.8,146.9l-2.4-15.5c-0.9-5.9-5.5-10.5-11.4-11.4l-9.8-1.5c-0.9-0.1-1.8-0.8-2.2-1.6c-3-6.1-7-11.5-11.8-16.3
		c-2.1-2.1-4.3-4-6.7-5.8c0.4-6.3,0-12.6-1-18.8c-1.5-8.8-4.2-13.7-8.2-15.1c-2.3-0.8-8.3-2.8-36.1,15.7c-0.6,0.4-1.1,0.8-1.6,1.3
		c-1.8-0.2-3.6-0.3-5.4-0.4c1.4-5.4,1.7-11,1.1-16.6c-0.2-1.2-0.7-2.2-1.7-2.9c-0.9-0.7-2.1-1-3.2-0.9c-2.3,0.3-4,2.4-3.8,4.7
		c1.7,15.2-5.7,29.8-19,37.3c-9,0.2-17.9,1.6-26.4,4.2c-20.4-4.2-33.7-24.2-29.6-44.7c4.1-20.6,24.2-34,44.8-29.9
		c9.5,1.9,17.8,7.2,23.4,15.1c1.4,1.9,4.2,2.3,6.1,0.9c1.9-1.4,2.3-4,1-6c-15.1-20.9-44.3-25.7-65.3-10.7
		c-10.1,7.3-16.8,18.1-18.8,30.4s0.9,24.7,8.2,34.8c4.6,6.3,10.6,11.4,17.6,14.8c-1.3,0.6-2.6,1.2-3.9,1.9c-2.1,1.1-2.9,3.8-1.7,5.9
		c1.1,2.1,3.7,2.9,5.8,1.8c16.9-8.8,36.6-11.9,55.4-8.8c2.4,0.4,4.6-1.3,4.9-3.7c0.3-2.3-1.2-4.5-3.5-4.9c-1.4-0.2-2.8-0.4-4.3-0.6
		c4.1-4,7.5-8.6,9.9-13.8c0.7,0,1.4,0.1,2.1,0.1c0.9,0.1,1.8,0.1,2.7,0.2c-0.3,7.9,0.9,14.6,3.6,20.1c2.4,4.9,6.4,8.9,11.2,11.4
		c5.5,2.7,11.6,3.7,17.7,2.7c3.8-0.5,7.5-2,10.7-4.3c2.7-2.2,4.8-5.9,6-11.2c0.7,0.6,1.3,1.2,1.9,1.8c4.1,4.1,7.5,8.8,10.1,14
		c1.7,3.4,4.9,5.8,8.6,6.3l9.8,1.5c2.1,0.3,3.8,2,4.1,4.1l2.4,15.5c0.3,2.1-0.7,4.2-2.7,5.2l-14.3,7.2c-2.5,1.3-4.5,3.4-5.5,6.1
		c-4.2,11-12,20.7-23.3,29c-1.6,1.1-2.5,2.9-2.6,4.9l-0.8,26.2c0,0.2-0.2,0.4-0.4,0.5l-15.6,2.5c-0.2,0-0.5-0.1-0.6-0.3l-4.9-13.7
		c-1.1-3.2-4.6-4.9-7.8-3.9c-6.6,2.1-13.4,3.7-20.2,4.8c-5,0.8-10.1,1.3-15.2,1.5c-3.3,0.1-5.9,2.8-6,6.1l-0.4,13.8
		c0,0.2-0.2,0.4-0.4,0.5l-15.6,2.5c-0.2,0-0.5-0.1-0.6-0.3l-8.4-23.3c-0.6-1.8-2.1-3.2-3.9-3.8C72.5,205.8,58.6,189,54.8,165
		c-1.9-12.1-1-23.3,2.8-33.1c3.7-9.4,9.9-17.7,17.9-24c1.8-1.5,2.1-4.3,0.5-6.1c-1.5-1.8-4.2-2.1-6-0.6
		c-15.5,12.6-24.1,29.5-24.9,49c-0.4-1-0.9-2-1.4-2.9c-2.9-4.8-7.7-7.8-12.3-7.7c-3.8,0.1-7.2,2.3-8.9,5.7
		c-2.7,5.1-1.6,8.7-0.1,10.8c2.2,3.2,6.7,5.1,13.5,5.6c-2.2,4-6,6.7-10.4,7.6c-2.4,0.4-4,2.7-3.6,5.2c0.4,2.4,2.6,4,5,3.8
		c0.3,0,0.5-0.1,0.8-0.1c4.5-0.7,11-3.5,16.1-12.5c0.7-1.2,1.3-2.5,1.7-3.8c0.1,0,0.1,0,0.2,0c0.2,1.6,0.4,3.1,0.6,4.6
		c2.2,14,7.5,25.9,15.8,35.5c7.8,8.9,17.9,15.7,29.1,19.6l8,22.2c1.3,3.7,4.8,6.1,8.7,6.1c0.5,0,1,0,1.4-0.1l15.6-2.5
		c4.4-0.7,7.6-4.4,7.8-8.8l0.3-11.5c4.7-0.3,9.3-0.8,14-1.5c6.5-1,13-2.5,19.3-4.4l4.1,11.5c1.5,4.2,5.8,6.7,10.1,6l15.6-2.5
		c4.4-0.7,7.6-4.4,7.8-8.8l0.7-25.1c12.1-9.1,20.6-20,25.3-32.2c0.2-0.6,0.7-1.1,1.3-1.4l14.3-7.2
		C250.8,158.6,253.8,152.8,252.8,146.9z M195.7,109.4c-3.3,2.7-11.8,4.4-19,0.7c-7.2-3.7-10.7-11.9-10.1-23.8c0.1-1,0.6-1.8,1.4-2.4
		c14.9-9.9,24.1-14.1,27.7-14.6c0.2,0,0.3-0.1,0.5-0.1c0,0,0.1,0,0.1,0c0.9,1.2,3.1,6.7,3.6,17.5v0
		C200.4,98.9,198.1,107.5,195.7,109.4z M29.7,151.1c0-0.1,0-0.7,0.6-1.8l0-0.1c0.2-0.5,0.7-0.9,1.1-1c0.1,0,0.1,0,0.2,0
		c1.2-0.1,3.3,1.2,4.6,3.4c0.3,0.5,0.5,0.9,0.7,1.4C32.4,152.8,30.2,151.9,29.7,151.1z"/>
	<path d="M127,72.4c-1.3-8.1-7.1-10.2-12.7-11.4l-1.6-10.1c1.7,0,3,0.4,4,0.7c0.9,0.3,1.6,0.5,2.4,0.4c2.3-0.4,3.2-3.1,2.9-4.9
		c-0.6-3.6-6.4-4-10.4-3.6l-0.1-0.6c-0.1-0.6-0.5-1.2-1.2-1.6c-0.6-0.3-1.2-0.4-1.8-0.3c-1.4,0.1-2.4,1.3-2.4,2.6l0.1,0.9
		c-6.9,2.2-10.3,7-9.2,13.5c1.2,7.9,7.6,9.4,13,10.4l1.9,11.9c-2.8,0-4.6-1.1-6-2c-1.1-0.7-2.1-1.3-3.1-1.1c-1,0.2-1.9,0.9-2.4,2
		c-0.5,0.9-0.7,2-0.6,2.9c0.5,3.5,6.3,6.6,13.4,5.9l0.1,0.9l0,0.1c0.3,1.1,1.4,1.9,2.5,1.9c0.2,0,0.4,0,0.6-0.1
		c1.4-0.3,2.5-1.5,2.3-2.8l-0.2-1.1C125,84.6,128.1,79.4,127,72.4z M104.7,56.2c-0.3-1.9,0.7-3.4,3-4.3l1.3,8
		C106.4,59.3,105,58.4,104.7,56.2z M116.9,79.3l-1.5-9.5c2.1,0.8,3.5,2,3.9,4.5C119.7,76.5,118.9,78.2,116.9,79.3z"/>
</g>
</svg>
