<?xml version="1.0" encoding="utf-8"?>
<!-- Generator: Adobe Illustrator 24.0.1, SVG Export Plug-In . SVG Version: 6.00 Build 0)  -->
<svg version="1.1" id="Layer_1" xmlns="http://www.w3.org/2000/svg" xmlns:xlink="http://www.w3.org/1999/xlink" x="0px" y="0px"
	 viewBox="0 0 270.8 270.8" style="enable-background:new 0 0 270.8 270.8;" xml:space="preserve">
<g transform="matrix(0.978, -0.208, 0.208, 0.978, 0, 47.466)">
	<path d="M190.2,40.3V19c0-10.5-8.5-19-19-19L19,0C8.5,0,0,8.5,0,19l0,83.7c0,9.7,7.4,17.8,17.1,18.8l14.3,37.1
		c3.8,9.8,14.8,14.7,24.6,10.9l89.3-34.4c-6.2,16.1-4.4,34.2,4.7,48.8l2.2,3.5v37c0,2.1,1.7,3.8,3.8,3.8l0,0h68.5
		c2.1,0,3.8-1.7,3.8-3.8l0,0V98.9c0-13.2-5.3-25.8-14.6-35.1L190.2,40.3z M190.2,63.1l11.6,30c2.3,5.9-0.7,12.5-6.6,14.8l-6.6,2.5
		c1.1-2.4,1.6-5,1.6-7.6L190.2,63.1z M7.6,102.7l0-83.7c0-6.3,5.1-11.4,11.4-11.4l152.2,0c6.3,0,11.4,5.1,11.4,11.4v24.2h0l0,0.1
		v59.4c0,0.7-0.1,1.3-0.3,2l-34.9-34.9c-8-7.8-20.9-7.7-28.7,0.3c-7.5,7.6-7.7,19.8-0.6,27.7l14.9,16.2H19
		C12.7,114.1,7.6,109,7.6,102.7z M56.4,121.8l-27.1,10.4l-4-10.4L56.4,121.8z M53.2,162.5c-5.9,2.3-12.5-0.7-14.8-6.5c0,0,0,0,0,0
		L32,139.3l45.4-17.5v0h62.6l4.9,5.4L53.2,162.5z M220.7,220.7h-60.9v-30.4h60.9V220.7z M220.7,182.6h-62.6l-1.7-2.6
		c-9.3-14.8-9.6-33.6-1-48.7c0.8-1.4,0.6-3.2-0.5-4.5l-31.2-34c-4.7-5.2-4.3-13.2,0.8-17.9c5-4.6,12.7-4.4,17.5,0.4l60.6,60.6
		l5.4-5.4l-14.1-14.1l3.9-1.5c9.8-3.8,14.7-14.8,10.9-24.6L196,56.9l12.3,12.4c7.9,7.9,12.3,18.5,12.3,29.7V182.6z"/>
	<path d="M43.4,53.3c5.5,0,9.9-4.4,9.9-9.9V25.1c0-5.5-4.4-9.9-9.9-9.9H25.1c-5.5,0-9.9,4.4-9.9,9.9v18.3c0,5.5,4.4,9.9,9.9,9.9
		L43.4,53.3z M22.8,43.4v-5.3h7.6v-7.6h-7.6v-5.3c0-1.3,1-2.3,2.3-2.3l18.3,0c1.3,0,2.3,1,2.3,2.3v5.3h-7.6v7.6h7.6v5.3
		c0,1.3-1,2.3-2.3,2.3H25.1C23.9,45.7,22.8,44.6,22.8,43.4z"/>
	<path d="M19,64.7h15.2v7.6H19V64.7z"/>
	<path d="M19,87.5h15.2v7.6H19V87.5z"/>
	<path d="M87.5,87.5h15.2v7.6H87.5V87.5z"/>
	<path d="M41.9,64.7h15.2v7.6H41.9V64.7z"/>
	<path d="M64.7,64.7h15.2v7.6H64.7V64.7z"/>
	<path d="M87.5,64.7h15.2v7.6H87.5V64.7z"/>
	<path d="M159.8,19h7.6v11.4h-7.6V19z"/>
	<path d="M144.6,19h7.6v11.4h-7.6V19z"/>
	<path d="M129.4,19h7.6v11.4h-7.6V19z"/>
	<path d="M114.1,19h7.6v11.4h-7.6V19z"/>
	<path d="M167.4,197.9h7.6v7.6h-7.6V197.9z"/>
</g>
</svg>
