<?xml version="1.0" encoding="utf-8"?>
<!-- Generator: Adobe Illustrator 24.0.1, SVG Export Plug-In . SVG Version: 6.00 Build 0)  -->
<svg version="1.1" id="Layer_1" xmlns="http://www.w3.org/2000/svg" xmlns:xlink="http://www.w3.org/1999/xlink" x="0px" y="0px"
	 viewBox="0 0 210.8 173.3" style="enable-background:new 0 0 210.8 173.3;" xml:space="preserve">
<style type="text/css">
	.st0{fill:none;}
</style>
<g>
	<path class="st0" d="M50,118.3C50,118.3,49.9,118.3,50,118.3c-1.4,0-2.7,0.5-3.6,1.5c-1,1-1.5,2.3-1.5,3.6c0,2.8,2.3,5.1,5.1,5.1
		c2.8,0,5.1-2.3,5.1-5.1C55.1,120.5,52.8,118.3,50,118.3z"/>
	<path d="M49.9,75.4C23.5,75.4,2,96.9,2,123.4c0,26.4,21.5,47.9,47.9,47.9c0,0,0,0,0,0c26.4,0,47.9-21.5,47.9-47.9
		C97.9,97,76.4,75.4,49.9,75.4z M49.9,161.1L49.9,161.1c-20.8,0-37.7-16.9-37.7-37.7s16.9-37.7,37.7-37.7s37.7,16.9,37.7,37.7
		C87.6,144.1,70.7,161.1,49.9,161.1z"/>
	<path d="M49.9,106c-9.6,0-17.4,7.8-17.4,17.4c0,9.6,7.8,17.4,17.4,17.4s17.4-7.8,17.4-17.4C67.3,113.8,59.5,106,49.9,106z
		 M50,130.5L50,130.5c-3.9,0-7.1-3.2-7.1-7.1c0-1.9,0.7-3.7,2.1-5c1.3-1.3,3.1-2.1,5-2.1c0,0,0,0,0,0c3.9,0,7.1,3.2,7.1,7.1
		C57.1,127.3,53.9,130.5,50,130.5z"/>
	<path d="M196.6,105.9L196.6,105.9l0-19.2c0-12.9-10.5-23.5-23.5-23.5h-13.2V31.6c0-3.6,2.7-6.6,6.1-7V14.3
		c-9.1,0.5-16.3,8.1-16.4,17.3v31.6h-28.6l-15.3-50.9h10.5V2H20.4v10.2h12.2v40.8l-0.8,0.2C22,55.8,12.6,60.5,4.6,66.9l6.5,7.9
		c12.7-10.1,28.5-14.9,44.7-13.3c16.5,1.6,31.5,9.5,42,22.3c9.2,11.1,14.2,25.2,14.2,39.6v17.4h25.6l0.1,0.8
		c3.3,19.4,21.7,32.6,41.1,29.3c19.4-3.3,32.6-21.7,29.3-41.1c-1.3-7.8-5.3-15.1-11.1-20.4h-0.6L196.6,105.9z M90.2,63.2L89.9,63
		C78.1,55.1,64.3,50.9,50,50.9c-2,0-4.1,0.1-6.1,0.3l-1.1,0.1V12.2h52.3l15.3,50.9H90.2z M118.2,99.2c-3.2-9-8-17.1-14.4-24.1
		l-1.5-1.7h70.8c7.3,0,13.2,5.9,13.2,13.2v15.8l-1.3-0.5c-3.8-1.4-7.8-2-11.9-2c0,0,0,0,0,0h-54.7L118.2,99.2z M137.9,129.7
		l-0.1,0.8h-15.4v-7.1c0-4-0.3-8.1-1-12.1l-0.2-1.2H148l-1.5,1.7C142,116.8,139,123,137.9,129.7z M198.6,135.6
		c0,14-11.4,25.5-25.5,25.5h0c-14,0-25.5-11.4-25.5-25.5c0-14,11.4-25.5,25.5-25.5C187.2,110.1,198.6,121.6,198.6,135.6z"/>
	<path d="M173.1,130.5c-2.8,0-5.1,2.3-5.1,5.1c0,2.8,2.3,5.1,5.1,5.1c0,0,0,0,0,0c1.4,0,2.7-0.5,3.6-1.5s1.5-2.3,1.5-3.6
		c0-1.4-0.5-2.7-1.5-3.6C175.8,131,174.5,130.5,173.1,130.5z"/>
</g>
</svg>
