<svg xmlns="http://www.w3.org/2000/svg" width="28" height="28" viewBox="0 0 28 28"><defs><style>.a{fill:#81bc01}.b{fill:#fff}</style></defs><g transform="translate(.2)"><circle class="a" cx="14" cy="14" r="14" transform="translate(-.2)"/><path class="b" d="M17.217 5.933h-6.4a4.723 4.723 0 0 0-4.718 4.718v6.4a4.723 4.723 0 0 0 4.718 4.718h6.4a4.723 4.723 0 0 0 4.718-4.718v-6.4a4.723 4.723 0 0 0-4.718-4.718zm3.125 11.119a3.125 3.125 0 0 1-3.125 3.125h-6.4a3.125 3.125 0 0 1-3.125-3.125v-6.4a3.125 3.125 0 0 1 3.125-3.125h6.4a3.125 3.125 0 0 1 3.125 3.125z"/><path class="b" d="M14.018 9.754a4.1 4.1 0 1 0 4.1 4.1 4.1 4.1 0 0 0-4.1-4.1zm0 6.6a2.5 2.5 0 1 1 2.5-2.5 2.5 2.5 0 0 1-2.5 2.5z"/><g><path class="b" d="M19.102 9.787a.982.982 0 1 1-.982-.982.982.982 0 0 1 .982.982zM14.017 9.754h-.031v1.6h.031a2.503 2.503 0 0 1 0 5.006h-.031v1.593h.031a4.1 4.1 0 0 0 0-8.192z"/></g></g></svg>