<svg xmlns="http://www.w3.org/2000/svg" width="27.669" height="27.669" viewBox="0 0 27.669 27.669"><defs><style>.a{fill:#81bc01}.b{fill:#fff}</style></defs><path class="a" d="M27.669 13.834A13.834 13.834 0 1 1 13.834 0a13.834 13.834 0 0 1 13.835 13.834zm0 0"/><path class="b" d="M5.376 12.71s2.615-2.992 3.4-.668 1.68 13.672 7.292 7.815c5.231-5.459 5.927-9.094 4.707-11.3s-4.544-1.512-6.232 1.685c-1.235 2.339 1.806.165 1.554 1.714-.418 2.57-2.465 6.559-3.082 3.263-.59-3.146-.375-5.994-2.176-7.33s-5 1.511-6.13 3.109zm0 0"/></svg>