<svg xmlns="http://www.w3.org/2000/svg" width="113.75" height="113.75" viewBox="0 0 113.75 113.75"><defs><style>.a{opacity:.15}</style></defs><g class="a"><path d="M58.383 70.473a1.8 1.8 0 0 0-2.393-.852 28.6 28.6 0 0 1-4.543 1.7A1.8 1.8 0 0 0 50.17 72.7l-1.9 9.5a2.019 2.019 0 0 1-1.97 1.616h-5.188a2.019 2.019 0 0 1-1.974-1.616l-1.9-9.5a1.8 1.8 0 0 0-1.277-1.377 28.537 28.537 0 0 1-6.308-2.614 1.8 1.8 0 0 0-1.878.07l-8.062 5.374a2.02 2.02 0 0 1-2.541-.252l-3.665-3.665a2.02 2.02 0 0 1-.252-2.541l5.374-8.062a1.8 1.8 0 0 0 .07-1.878 28.529 28.529 0 0 1-2.614-6.308 1.8 1.8 0 0 0-1.377-1.277l-9.5-1.9a2.019 2.019 0 0 1-1.619-1.975v-5.183a2.019 2.019 0 0 1 1.621-1.975l9.5-1.9a1.8 1.8 0 0 0 1.377-1.277 28.537 28.537 0 0 1 2.613-6.308 1.8 1.8 0 0 0-.07-1.878l-5.374-8.061a2.019 2.019 0 0 1 .252-2.541l3.665-3.665a2.02 2.02 0 0 1 2.541-.252l8.062 5.374a1.8 1.8 0 0 0 1.878.07 28.537 28.537 0 0 1 6.308-2.614 1.8 1.8 0 0 0 1.277-1.377l1.9-9.5a2.019 2.019 0 0 1 1.975-1.619H46.3a2.019 2.019 0 0 1 1.971 1.621l1.9 9.5a1.8 1.8 0 0 0 1.277 1.377 28.537 28.537 0 0 1 6.307 2.613 1.8 1.8 0 0 0 1.878-.07l8.062-5.374a2.02 2.02 0 0 1 2.541.252l3.664 3.665a2.02 2.02 0 0 1 .252 2.541l-5.374 8.062a1.8 1.8 0 0 0-.07 1.878 28.537 28.537 0 0 1 2.614 6.308 1.8 1.8 0 0 0 1.378 1.276l9.5 1.9a2.019 2.019 0 0 1 1.619 1.975V46.3a2.019 2.019 0 0 1-1.619 1.97l-9.5 1.9a1.8 1.8 0 0 0-1.377 1.277A28.587 28.587 0 0 1 69.57 56.1a1.8 1.8 0 1 0 3.238 1.554 32.212 32.212 0 0 0 1.653-4.172l8.44-1.688a5.622 5.622 0 0 0 4.505-5.5v-5.182a5.621 5.621 0 0 0-4.506-5.5l-8.44-1.688a32.139 32.139 0 0 0-2.1-5.059l4.775-7.162a5.621 5.621 0 0 0-.7-7.074l-3.665-3.665a5.622 5.622 0 0 0-7.074-.7l-7.162 4.775a32.16 32.16 0 0 0-5.059-2.1l-1.688-8.44A5.62 5.62 0 0 0 46.3 0h-5.188a5.621 5.621 0 0 0-5.5 4.506l-1.688 8.44a32.139 32.139 0 0 0-5.059 2.1l-7.162-4.775a5.621 5.621 0 0 0-7.074.7l-3.665 3.665a5.621 5.621 0 0 0-.7 7.074l4.775 7.162a32.151 32.151 0 0 0-2.1 5.059l-8.44 1.688A5.621 5.621 0 0 0 0 41.113V46.3a5.621 5.621 0 0 0 4.506 5.5l8.44 1.688a32.135 32.135 0 0 0 2.1 5.059L10.268 65.7a5.621 5.621 0 0 0 .7 7.074l3.665 3.665a5.621 5.621 0 0 0 7.074.7l7.162-4.775a32.151 32.151 0 0 0 5.059 2.1l1.688 8.436a5.621 5.621 0 0 0 5.5 4.506H46.3a5.621 5.621 0 0 0 5.5-4.506l1.688-8.44a32.178 32.178 0 0 0 4.05-1.6 1.8 1.8 0 0 0 .845-2.387z"/><path d="M59.261 53.684a1.795 1.795 0 0 0 2.418-.778 20.191 20.191 0 0 0-32.067-23.658 1.8 1.8 0 1 0 2.507 2.572 16.6 16.6 0 0 1 26.363 19.451 1.8 1.8 0 0 0 .779 2.413zM26.892 36.019a1.8 1.8 0 0 0-2.283 1.114 20.193 20.193 0 0 0 30.925 22.933 1.8 1.8 0 1 0-2.107-2.91 16.605 16.605 0 0 1-25.422-18.855 1.8 1.8 0 0 0-1.113-2.282zM110.294 78.495l-5.194-1.039a21.727 21.727 0 0 0-1.139-2.749l2.938-4.407a4.311 4.311 0 0 0-.537-5.425l-2.408-2.413a4.312 4.312 0 0 0-5.425-.537l-4.407 2.938a21.69 21.69 0 0 0-2.749-1.139l-1.039-5.194a4.311 4.311 0 0 0-4.216-3.457h-3.406a4.311 4.311 0 0 0-4.216 3.457l-1.039 5.194a21.756 21.756 0 0 0-2.749 1.139l-4.407-2.938a4.312 4.312 0 0 0-5.425.537l-2.408 2.408a4.311 4.311 0 0 0-.537 5.425l2.938 4.407a21.706 21.706 0 0 0-1.467 3.816 1.8 1.8 0 1 0 3.459.968 18.123 18.123 0 0 1 1.661-4.009 1.8 1.8 0 0 0-.07-1.878l-3.532-5.3a.71.71 0 0 1 .088-.893l2.408-2.408a.71.71 0 0 1 .893-.088l5.3 3.532a1.8 1.8 0 0 0 1.878.07 18.128 18.128 0 0 1 4.009-1.661 1.8 1.8 0 0 0 1.277-1.377l1.248-6.242a.709.709 0 0 1 .694-.569h3.406a.71.71 0 0 1 .694.569l1.248 6.243a1.8 1.8 0 0 0 1.277 1.377 18.123 18.123 0 0 1 4.009 1.661 1.8 1.8 0 0 0 1.878-.07l5.3-3.532a.709.709 0 0 1 .893.088l2.408 2.408a.71.71 0 0 1 .088.893l-3.532 5.3a1.8 1.8 0 0 0-.07 1.878 18.131 18.131 0 0 1 1.661 4.009 1.8 1.8 0 0 0 1.377 1.277l6.242 1.248a.709.709 0 0 1 .569.694v3.406a.71.71 0 0 1-.569.694l-6.243 1.248a1.8 1.8 0 0 0-1.377 1.277 18.124 18.124 0 0 1-1.661 4.009 1.8 1.8 0 0 0 .07 1.878l3.532 5.3a.71.71 0 0 1-.088.893l-2.408 2.408a.71.71 0 0 1-.893.088l-5.3-3.532a1.8 1.8 0 0 0-1.878-.07 18.129 18.129 0 0 1-4.009 1.661 1.8 1.8 0 0 0-1.277 1.377l-1.248 6.242a.709.709 0 0 1-.694.569h-3.406a.71.71 0 0 1-.694-.569l-1.248-6.243a1.8 1.8 0 0 0-1.277-1.377 18.123 18.123 0 0 1-4.009-1.661 1.8 1.8 0 0 0-1.878.07l-5.3 3.532a.709.709 0 0 1-.893-.088l-2.408-2.408a.71.71 0 0 1-.088-.893l3.532-5.3a1.8 1.8 0 0 0 .07-1.878 18.128 18.128 0 0 1-1.661-4.009 1.8 1.8 0 0 0-1.377-1.277l-6.242-1.248a.709.709 0 0 1-.569-.694v-3.406a.71.71 0 0 1 .569-.694l.382-.076a1.8 1.8 0 1 0-.7-3.522l-.382.076a4.312 4.312 0 0 0-3.456 4.216v3.406a4.311 4.311 0 0 0 3.457 4.216l5.194 1.039a21.757 21.757 0 0 0 1.139 2.749l-2.938 4.407a4.311 4.311 0 0 0 .537 5.425l2.408 2.408a4.311 4.311 0 0 0 5.425.537l4.407-2.938a21.694 21.694 0 0 0 2.749 1.139l1.039 5.194a4.312 4.312 0 0 0 4.217 3.457h3.406a4.311 4.311 0 0 0 4.216-3.457l1.039-5.194a21.73 21.73 0 0 0 2.749-1.139l4.407 2.938a4.311 4.311 0 0 0 5.425-.537l2.408-2.408a4.311 4.311 0 0 0 .537-5.425l-2.938-4.407a21.69 21.69 0 0 0 1.139-2.749l5.194-1.039a4.311 4.311 0 0 0 3.456-4.216v-3.406a4.311 4.311 0 0 0-3.463-4.21z"/><path d="M84.414 77.949a6.473 6.473 0 0 1 6.466 6.466 1.8 1.8 0 1 0 3.592 0 10.058 10.058 0 1 0-10.058 10.056 9.964 9.964 0 0 0 6.145-2.095 1.8 1.8 0 1 0-2.2-2.843 6.4 6.4 0 0 1-3.949 1.345 6.466 6.466 0 1 1 0-12.932zM54.647 43.704a10.942 10.942 0 1 0-10.942 10.942 10.955 10.955 0 0 0 10.942-10.942zm-18.293 0a7.35 7.35 0 1 1 7.35 7.35 7.359 7.359 0 0 1-7.35-7.35z"/></g></svg>