<svg xmlns="http://www.w3.org/2000/svg" width="123.973" height="124.081" viewBox="0 0 123.973 124.081"><defs><style>.a{opacity:.15}</style></defs><g class="a"><path d="M104.216 109.24L80.692 18.369a10.319 10.319 0 0 0-18.055-3.84L4.171 87.962a10.319 10.319 0 0 0 5.92 16.527l81.99 17.437a10.319 10.319 0 0 0 12.135-12.686zm-11.229 8.427L11 100.23a5.965 5.965 0 0 1-3.422-9.556l58.466-73.433a5.96 5.96 0 0 1 10.436 2.22l23.524 90.87a5.965 5.965 0 0 1-7.014 7.334z"/><path d="M73.66 24.94a4.156 4.156 0 0 0-7.272-1.546L13.193 90.097a4.156 4.156 0 0 0 2.386 6.656l74.639 15.874a4.155 4.155 0 0 0 4.887-5.11zM16.796 92.56l52.75-66.143 21.265 81.885z"/><path d="M58.736 45.846l-6.34 29.807a6.53 6.53 0 1 0 12.775 2.717l6.34-29.807a6.53 6.53 0 1 0-12.775-2.717zm8.516 1.812l-6.34 29.806a2.177 2.177 0 1 1-4.257-.905l6.339-29.807a2.177 2.177 0 1 1 4.258.906zM56.973 85.528a6.53 6.53 0 1 0 5.03 7.746 6.537 6.537 0 0 0-5.03-7.746zm-1.81 8.516a2.177 2.177 0 1 1 2.581-1.676 2.179 2.179 0 0 1-2.582 1.676zM31.512 37.831a6.53 6.53 0 1 0-5.03-7.746 6.537 6.537 0 0 0 5.03 7.746zm1.811-8.516a2.177 2.177 0 1 1-2.582 1.676 2.179 2.179 0 0 1 2.582-1.676zM107.523 36.194a6.53 6.53 0 1 0-5.03-7.746 6.537 6.537 0 0 0 5.03 7.746zm1.811-8.517a2.177 2.177 0 1 1-2.582 1.677 2.179 2.179 0 0 1 2.582-1.677z"/></g></svg>